<svg xmlns="http://www.w3.org/2000/svg" viewBox="0 0 960 960" style="display:none;">
  <!-- Factory Hub -->
  <symbol id="icon-factory" viewBox="0 0 120 120">
    <title>Manufacturing Hub</title>
    <desc>Industrial factory building with three chimneys</desc>
    <g stroke="#2a2a72" stroke-width="1.5" fill="none" stroke-linecap="round" stroke-linejoin="round">
      <!-- Building base -->
      <rect x="25" y="55" width="70" height="40" />
      <!-- Roof -->
      <polyline points="25,55 60,30 95,55" />
      <!-- Door -->
      <rect x="55" y="75" width="10" height="20" />
      <!-- Windows -->
      <rect x="35" y="65" width="8" height="8" />
      <rect x="77" y="65" width="8" height="8" />
      <!-- Smokestacks -->
      <line x1="40" y1="55" x2="40" y2="20" />
      <line x1="60" y1="55" x2="60" y2="15" />
      <line x1="80" y1="55" x2="80" y2="22" />
      <!-- Smoke -->
      <path d="M 40 20 Q 35 10 40 5" />
      <path d="M 60 15 Q 55 5 60 0" />
      <path d="M 80 22 Q 75 12 80 7" />
    </g>
  </symbol>

  <!-- CNC Mill -->
  <symbol id="icon-cnc-mill" viewBox="0 0 120 120">
    <title>CNC Milling Machine</title>
    <desc>Computer numerical control mill</desc>
    <g stroke="#2a2a72" stroke-width="1.5" fill="none" stroke-linecap="round" stroke-linejoin="round">
      <!-- Base -->
      <rect x="15" y="70" width="90" height="20" rx="2" />
      <!-- Column -->
      <rect x="50" y="30" width="20" height="40" rx="2" />
      <!-- Head -->
      <rect x="45" y="25" width="30" height="10" rx="2" />
      <!-- Spindle -->
      <circle cx="60" cy="40" r="6" />
      <!-- Cutter -->
      <line x1="60" y1="46" x2="60" y2="60" />
      <!-- Control panel on base -->
      <rect x="20" y="75" width="15" height="10" rx="1" />
      <circle cx="23" cy="77" r="1" fill="#ffa400" />
      <circle cx="27" cy="77" r="1" fill="#ffa400" />
    </g>
  </symbol>

  <!-- 3D Printer -->
  <symbol id="icon-3d-printer" viewBox="0 0 120 120">
    <title>3D Printer</title>
    <desc>Additive manufacturing device</desc>
    <g stroke="#2a2a72" stroke-width="1.5" fill="none" stroke-linecap="round" stroke-linejoin="round">
      <!-- Frame -->
      <rect x="20" y="20" width="80" height="70" rx="3" />
      <!-- Build platform -->
      <rect x="30" y="60" width="60" height="3" fill="#eaf6ff" />
      <!-- Hot end -->
      <circle cx="60" cy="50" r="5" />
      <!-- Filament guide -->
      <path d="M 60 50 L 60 30" />
      <!-- Gantry arms -->
      <line x1="25" y1="40" x2="95" y2="40" />
      <line x1="25" y1="55" x2="95" y2="55" />
      <!-- Control indicator -->
      <circle cx="35" cy="85" r="2" fill="#10b981" />
    </g>
  </symbol>

  <!-- Laser Cutter -->
  <symbol id="icon-laser" viewBox="0 0 120 120">
    <title>Laser Cutter</title>
    <desc>Laser cutting machine</desc>
    <g stroke="#2a2a72" stroke-width="1.5" fill="none" stroke-linecap="round" stroke-linejoin="round">
      <!-- Bed -->
      <rect x="15" y="55" width="90" height="35" rx="3" />
      <!-- Head -->
      <rect x="45" y="30" width="30" height="25" rx="2" />
      <!-- Laser lens -->
      <circle cx="60" cy="42" r="6" fill="none" stroke="#ffa400" stroke-width="1.5" />
      <!-- Laser beam -->
      <line x1="60" y1="48" x2="60" y2="55" stroke="#ffa400" stroke-width="2" />
      <!-- Grid -->
      <line x1="30" y1="65" x2="30" y2="85" />
      <line x1="45" y1="65" x2="45" y2="85" />
      <line x1="60" y1="65" x2="60" y2="85" />
      <line x1="75" y1="65" x2="75" y2="85" />
      <line x1="90" y1="65" x2="90" y2="85" />
    </g>
  </symbol>

  <!-- Toolpath -->
  <symbol id="icon-toolpath" viewBox="0 0 120 120">
    <title>Toolpath Preview</title>
    <desc>Multi-axis cutting path</desc>
    <g stroke="#ffa400" stroke-width="1.5" fill="none" stroke-linecap="round" stroke-linejoin="round">
      <!-- Path lines -->
      <path d="M 20 40 Q 40 20 60 40 T 100 40" />
      <path d="M 20 60 Q 40 45 60 65 T 100 60" />
      <path d="M 20 80 Q 40 70 60 90 T 100 80" />
      <!-- Direction arrows -->
      <path d="M 100 40 L 95 38 L 97 42" fill="#ffa400" />
      <path d="M 100 60 L 95 58 L 97 62" fill="#ffa400" />
      <path d="M 100 80 L 95 78 L 97 82" fill="#ffa400" />
    </g>
  </symbol>

  <!-- Cloud Sync / Collaboration -->
  <symbol id="icon-cloud-sync" viewBox="0 0 120 120">
    <title>Cloud Sync</title>
    <desc>Real-time synchronization</desc>
    <g stroke="#2a2a72" stroke-width="1.5" fill="none" stroke-linecap="round" stroke-linejoin="round">
      <!-- Cloud -->
      <path d="M 25 65 Q 20 50 35 40 Q 40 30 55 30 Q 65 30 70 40 Q 85 35 90 50 Q 95 65 85 75 L 30 75 Q 20 75 25 65" />
      <!-- Sync arrows -->
      <path d="M 45 55 L 45 70" />
      <path d="M 75 55 L 75 70" />
      <path d="M 45 65 L 42 60" />
      <path d="M 45 65 L 48 60" />
      <path d="M 75 60 L 72 65" />
      <path d="M 75 60 L 78 65" />
    </g>
  </symbol>

  <!-- Catalog -->
  <symbol id="icon-catalog" viewBox="0 0 120 120">
    <title>Catalog</title>
    <desc>Product catalog and parts library</desc>
    <g stroke="#2a2a72" stroke-width="1.5" fill="none" stroke-linecap="round" stroke-linejoin="round">
      <!-- Pages -->
      <rect x="20" y="20" width="60" height="70" rx="2" />
      <rect x="30" y="30" width="60" height="70" rx="2" />
      <!-- Grid items on page -->
      <rect x="35" y="40" width="12" height="12" />
      <rect x="52" y="40" width="12" height="12" />
      <rect x="35" y="58" width="12" height="12" />
      <rect x="52" y="58" width="12" height="12" />
      <!-- Text lines -->
      <line x1="35" y1="78" x2="50" y2="78" stroke-width="1" />
      <line x1="35" y1="83" x2="48" y2="83" stroke-width="1" />
    </g>
  </symbol>

  <!-- Upload -->
  <symbol id="icon-upload" viewBox="0 0 120 120">
    <title>Upload File</title>
    <desc>Upload CAD file</desc>
    <g stroke="#2a2a72" stroke-width="1.5" fill="none" stroke-linecap="round" stroke-linejoin="round">
      <!-- Box -->
      <rect x="25" y="50" width="70" height="40" rx="3" />
      <!-- Arrow up -->
      <path d="M 60 75 L 60 40" />
      <path d="M 60 40 L 50 50" />
      <path d="M 60 40 L 70 50" />
      <!-- Dashed border effect -->
      <line x1="35" y1="55" x2="45" y2="55" stroke-dasharray="2,2" />
      <line x1="75" y1="55" x2="85" y2="55" stroke-dasharray="2,2" />
    </g>
  </symbol>

  <!-- Hub Location / Map -->
  <symbol id="icon-hub-location" viewBox="0 0 120 120">
    <title>Hub Location</title>
    <desc>Manufacturing hub on map</desc>
    <g stroke="#2a2a72" stroke-width="1.5" fill="none" stroke-linecap="round" stroke-linejoin="round">
      <!-- Map grid -->
      <line x1="20" y1="40" x2="100" y2="40" />
      <line x1="20" y1="60" x2="100" y2="60" />
      <line x1="20" y1="80" x2="100" y2="80" />
      <line x1="40" y1="20" x2="40" y2="100" />
      <line x1="60" y1="20" x2="60" y2="100" />
      <line x1="80" y1="20" x2="80" y2="100" />
      <!-- Pin -->
      <circle cx="60" cy="50" r="8" fill="#ffa400" />
      <path d="M 60 50 L 55 65 Q 60 75 65 65 Z" fill="#ffa400" />
    </g>
  </symbol>

  <!-- Quality Check / Verification -->
  <symbol id="icon-quality-check" viewBox="0 0 120 120">
    <title>Quality Check</title>
    <desc>Quality assurance and verification</desc>
    <g stroke="#2a2a72" stroke-width="1.5" fill="none" stroke-linecap="round" stroke-linejoin="round">
      <!-- Circle -->
      <circle cx="60" cy="60" r="40" />
      <!-- Checkmark -->
      <path d="M 45 60 L 55 70 L 80 45" stroke-width="2" />
    </g>
  </symbol>

  <!-- Settings -->
  <symbol id="icon-settings" viewBox="0 0 120 120">
    <title>Settings</title>
    <desc>Configuration and preferences</desc>
    <g stroke="#2a2a72" stroke-width="1.5" fill="none" stroke-linecap="round" stroke-linejoin="round">
      <!-- Gear -->
      <circle cx="60" cy="60" r="15" />
      <circle cx="60" cy="60" r="8" />
      <!-- Teeth -->
      <line x1="60" y1="25" x2="60" y2="32" />
      <line x1="60" y1="88" x2="60" y2="95" />
      <line x1="25" y1="60" x2="32" y2="60" />
      <line x1="88" y1="60" x2="95" y2="60" />
      <line x1="35" y1="35" x2="40" y2="40" />
      <line x1="80" y1="80" x2="85" y2="85" />
      <line x1="85" y1="35" x2="80" y2="40" />
      <line x1="40" y1="80" x2="35" y2="85" />
    </g>
  </symbol>

  <!-- Shield / Security -->
  <symbol id="icon-shield" viewBox="0 0 120 120">
    <title>Security</title>
    <desc>Data protection and security</desc>
    <g stroke="#2a2a72" stroke-width="1.5" fill="none" stroke-linecap="round" stroke-linejoin="round">
      <!-- Shield -->
      <path d="M 60 20 L 30 35 L 30 65 Q 30 85 60 95 Q 90 85 90 65 L 90 35 Z" />
      <!-- Check -->
      <path d="M 50 65 L 55 70 L 70 55" stroke-width="1.5" />
    </g>
  </symbol>

  <!-- Analytics / Chart -->
  <symbol id="icon-analytics" viewBox="0 0 120 120">
    <title>Analytics</title>
    <desc>Performance metrics and reporting</desc>
    <g stroke="#2a2a72" stroke-width="1.5" fill="none" stroke-linecap="round" stroke-linejoin="round">
      <!-- Axes -->
      <line x1="25" y1="90" x2="95" y2="90" />
      <line x1="25" y1="20" x2="25" y2="90" />
      <!-- Bars -->
      <rect x="35" y="70" width="10" height="20" fill="#eaf0ff" />
      <rect x="50" y="55" width="10" height="35" fill="#eaf0ff" />
      <rect x="65" y="40" width="10" height="50" fill="#ffa400" />
      <rect x="80" y="50" width="10" height="40" fill="#eaf0ff" />
    </g>
  </symbol>

  <!-- User / Account -->
  <symbol id="icon-user" viewBox="0 0 120 120">
    <title>User Account</title>
    <desc>User profile and identity</desc>
    <g stroke="#2a2a72" stroke-width="1.5" fill="none" stroke-linecap="round" stroke-linejoin="round">
      <!-- Head -->
      <circle cx="60" cy="40" r="15" />
      <!-- Body -->
      <path d="M 45 58 L 45 85 Q 45 90 50 90 L 70 90 Q 75 90 75 85 L 75 58 Q 75 55 72 55 L 48 55 Q 45 55 45 58" />
    </g>
  </symbol>

  <!-- Team / Collaboration -->
  <symbol id="icon-team" viewBox="0 0 120 120">
    <title>Team Collaboration</title>
    <desc>Multiple users and teamwork</desc>
    <g stroke="#2a2a72" stroke-width="1.5" fill="none" stroke-linecap="round" stroke-linejoin="round">
      <!-- User 1 -->
      <circle cx="35" cy="35" r="10" />
      <path d="M 25 50 L 25 70 Q 25 75 30 75 L 40 75 Q 45 75 45 70 L 45 50" />
      <!-- User 2 -->
      <circle cx="60" cy="28" r="12" />
      <path d="M 48 48 L 48 72 Q 48 78 54 78 L 66 78 Q 72 78 72 72 L 72 48" />
      <!-- User 3 -->
      <circle cx="85" cy="38" r="10" />
      <path d="M 75 53 L 75 73 Q 75 78 80 78 L 90 78 Q 95 78 95 73 L 95 53" />
    </g>
  </symbol>

  <!-- Mesh / 3D Geometry -->
  <symbol id="icon-mesh" viewBox="0 0 120 120">
    <title>Mesh</title>
    <desc>3D geometry and mesh data</desc>
    <g stroke="#2a2a72" stroke-width="1.5" fill="none" stroke-linecap="round" stroke-linejoin="round">
      <!-- Wireframe cube -->
      <path d="M 30 35 L 60 20 L 90 35 L 90 70 L 60 85 L 30 70 Z" />
      <line x1="30" y1="35" x2="60" y2="50" />
      <line x1="90" y1="35" x2="60" y2="50" />
      <line x1="60" y1="50" x2="60" y2="85" />
    </g>
  </symbol>

  <!-- Clock / SLA Timer -->
  <symbol id="icon-clock-sla" viewBox="0 0 120 120">
    <title>SLA Timer</title>
    <desc>Service level agreement and time tracking</desc>
    <g stroke="#2a2a72" stroke-width="1.5" fill="none" stroke-linecap="round" stroke-linejoin="round">
      <!-- Clock circle -->
      <circle cx="60" cy="60" r="35" />
      <!-- Numbers -->
      <circle cx="60" cy="30" r="1.5" fill="#2a2a72" />
      <circle cx="85" cy="60" r="1.5" fill="#2a2a72" />
      <circle cx="60" cy="90" r="1.5" fill="#2a2a72" />
      <circle cx="35" cy="60" r="1.5" fill="#2a2a72" />
      <!-- Hands -->
      <line x1="60" y1="60" x2="60" y2="40" stroke-width="2" />
      <line x1="60" y1="60" x2="75" y2="60" stroke-width="2" stroke="#ffa400" />
    </g>
  </symbol>

  <!-- Cutter / Tool -->
  <symbol id="icon-cutter" viewBox="0 0 120 120">
    <title>Cutting Tool</title>
    <desc>Machining tool and cutter geometry</desc>
    <g stroke="#2a2a72" stroke-width="1.5" fill="none" stroke-linecap="round" stroke-linejoin="round">
      <!-- Shank -->
      <rect x="55" y="20" width="10" height="60" rx="2" />
      <!-- Flutes (grooves) -->
      <line x1="58" y1="30" x2="58" y2="70" />
      <line x1="62" y1="30" x2="62" y2="70" />
      <!-- Tip -->
      <path d="M 55 80 L 60 95 L 65 80" />
      <!-- Cutting edges -->
      <line x1="60" y1="85" x2="55" y2="80" stroke="#ffa400" stroke-width="1.5" />
      <line x1="60" y1="85" x2="65" y2="80" stroke="#ffa400" stroke-width="1.5" />
    </g>
  </symbol>

  <!-- Bolt (Fastener) -->
  <symbol id="icon-bolt" viewBox="0 0 120 120">
    <title>Bolt / Fastener</title>
    <desc>Industrial fastener hardware</desc>
    <g stroke="#2a2a72" stroke-width="1.5" fill="none" stroke-linecap="round" stroke-linejoin="round">
      <!-- Head -->
      <polygon points="60,20 75,27 75,41 60,48 45,41 45,27" fill="none" />
      <!-- Shank -->
      <line x1="55" y1="48" x2="55" y2="85" />
      <line x1="65" y1="48" x2="65" y2="85" />
      <!-- Threads (dashes) -->
      <line x1="53" y1="58" x2="67" y2="58" stroke-dasharray="2,2" />
      <line x1="53" y1="68" x2="67" y2="68" stroke-dasharray="2,2" />
      <line x1="53" y1="78" x2="67" y2="78" stroke-dasharray="2,2" />
      <!-- Tip -->
      <path d="M 60 85 L 55 95 L 65 95 Z" />
    </g>
  </symbol>

  <!-- Gear / Transmission -->
  <symbol id="icon-gear" viewBox="0 0 120 120">
    <title>Gear / Transmission</title>
    <desc>Mechanical component and gearing</desc>
    <g stroke="#2a2a72" stroke-width="1.5" fill="none" stroke-linecap="round" stroke-linejoin="round">
      <!-- Gear teeth -->
      <circle cx="60" cy="60" r="30" />
      <!-- Teeth (8) -->
      <rect x="55" y="25" width="10" height="8" />
      <rect x="55" y="87" width="10" height="8" />
      <rect x="25" y="55" width="8" height="10" />
      <rect x="87" y="55" width="8" height="10" />
      <!-- Hub -->
      <circle cx="60" cy="60" r="12" />
    </g>
  </symbol>

  <!-- Box / Shipping Crate -->
  <symbol id="icon-crate" viewBox="0 0 120 120">
    <title>Shipping Crate</title>
    <desc>Packaging and delivery container</desc>
    <g stroke="#2a2a72" stroke-width="1.5" fill="none" stroke-linecap="round" stroke-linejoin="round">
      <!-- Box isometric -->
      <path d="M 30 70 L 30 40 L 60 25 L 90 40 L 90 70" />
      <line x1="30" y1="70" x2="60" y2="85" />
      <line x1="90" y1="70" x2="60" y2="85" />
      <!-- Slats -->
      <line x1="40" y1="50" x2="80" y2="50" />
      <line x1="35" y1="60" x2="85" y2="60" />
    </g>
  </symbol>

  <!-- Download -->
  <symbol id="icon-download" viewBox="0 0 120 120">
    <title>Download</title>
    <desc>Download and export</desc>
    <g stroke="#2a2a72" stroke-width="1.5" fill="none" stroke-linecap="round" stroke-linejoin="round">
      <!-- Box -->
      <rect x="25" y="35" width="70" height="40" rx="3" />
      <!-- Arrow down -->
      <path d="M 60 45 L 60 70" />
      <path d="M 60 70 L 50 60" />
      <path d="M 60 70 L 70 60" />
      <!-- Dashes for progress -->
      <line x1="35" y1="85" x2="85" y2="85" stroke-dasharray="2,2" stroke-width="1" />
    </g>
  </symbol>

  <!-- API / Integration -->
  <symbol id="icon-api" viewBox="0 0 120 120">
    <title>API Integration</title>
    <desc>API endpoint and integration</desc>
    <g stroke="#2a2a72" stroke-width="1.5" fill="none" stroke-linecap="round" stroke-linejoin="round">
      <!-- Nodes -->
      <circle cx="40" cy="40" r="8" />
      <circle cx="60" cy="60" r="8" />
      <circle cx="80" cy="40" r="8" />
      <!-- Connections -->
      <line x1="48" y1="40" x2="72" y2="60" />
      <line x1="52" y1="60" x2="72" y2="40" />
      <!-- Data flow arrows -->
      <path d="M 55 50 L 60 55" stroke="#ffa400" stroke-width="1.5" />
    </g>
  </symbol>

  <!-- Spindle / Rotation -->
  <symbol id="icon-spindle" viewBox="0 0 120 120">
    <title>Spindle / Rotation</title>
    <desc>Rotational axis and spindle motion</desc>
    <g stroke="#2a2a72" stroke-width="1.5" fill="none" stroke-linecap="round" stroke-linejoin="round">
      <!-- Spindle shaft -->
      <line x1="60" y1="20" x2="60" y2="100" />
      <!-- Collet -->
      <circle cx="60" cy="40" r="12" />
      <!-- Cutting tool holder -->
      <polygon points="60,52 55,65 65,65" />
      <!-- Rotation arrows -->
      <path d="M 50 40 Q 40 40 40 50" stroke="#ffa400" stroke-width="1.5" fill="none" marker-end="url(#arrowhead)" />
      <path d="M 70 40 Q 80 40 80 50" stroke="#ffa400" stroke-width="1.5" fill="none" marker-end="url(#arrowhead)" />
    </g>
  </symbol>

  <!-- Material Roll / Stock -->
  <symbol id="icon-material-roll" viewBox="0 0 120 120">
    <title>Material Roll</title>
    <desc>Raw material stock and inventory</desc>
    <g stroke="#2a2a72" stroke-width="1.5" fill="none" stroke-linecap="round" stroke-linejoin="round">
      <!-- Roll (front view) -->
      <circle cx="50" cy="50" r="30" />
      <!-- Center -->
      <circle cx="50" cy="50" r="10" />
      <!-- Layers -->
      <circle cx="50" cy="50" r="20" />
      <!-- Material strand -->
      <line x1="80" y1="50" x2="95" y2="50" stroke-width="3" />
      <!-- Direction arrow -->
      <path d="M 90 50 L 85 47 L 85 53 Z" fill="#ffa400" />
    </g>
  </symbol>

  <!-- Robot Arm / Automation -->
  <symbol id="icon-robot-arm" viewBox="0 0 120 120">
    <title>Robot Arm</title>
    <desc>Robotic automation and assembly</desc>
    <g stroke="#2a2a72" stroke-width="1.5" fill="none" stroke-linecap="round" stroke-linejoin="round">
      <!-- Base -->
      <circle cx="30" cy="85" r="6" />
      <!-- Joints -->
      <circle cx="50" cy="65" r="5" />
      <circle cx="70" cy="45" r="5" />
      <!-- Links -->
      <line x1="30" y1="85" x2="50" y2="65" stroke-width="2" />
      <line x1="50" y1="65" x2="70" y2="45" stroke-width="2" />
      <line x1="70" y1="45" x2="85" y2="30" stroke-width="2" />
      <!-- End effector / gripper -->
      <circle cx="85" cy="30" r="6" />
      <line x1="82" y1="25" x2="88" y2="25" />
      <line x1="82" y1="35" x2="88" y2="35" />
    </g>
  </symbol>

  <!-- Waterjet -->
  <symbol id="icon-waterjet" viewBox="0 0 120 120">
    <title>Waterjet Cutter</title>
    <desc>High-pressure waterjet cutting system</desc>
    <g stroke="#2a2a72" stroke-width="1.5" fill="none" stroke-linecap="round" stroke-linejoin="round">
      <!-- Head assembly -->
      <rect x="40" y="20" width="40" height="35" rx="3" />
      <!-- Nozzle -->
      <circle cx="60" cy="55" r="5" />
      <!-- Water stream -->
      <line x1="60" y1="60" x2="60" y2="90" stroke="#3b82f6" stroke-width="3" />
      <!-- Cutting action droplets -->
      <circle cx="58" cy="70" r="1.5" fill="#3b82f6" />
      <circle cx="62" cy="75" r="1.5" fill="#3b82f6" />
      <circle cx="57" cy="82" r="1.5" fill="#3b82f6" />
    </g>
  </symbol>

  <!-- Simulation / Preview -->
  <symbol id="icon-simulation" viewBox="0 0 120 120">
    <title>Simulation Preview</title>
    <desc>Virtual simulation and testing</desc>
    <g stroke="#2a2a72" stroke-width="1.5" fill="none" stroke-linecap="round" stroke-linejoin="round">
      <!-- Screen/Frame -->
      <rect x="20" y="20" width="80" height="65" rx="4" />
      <line x1="20" y1="30" x2="100" y2="30" />
      <!-- Content area -->
      <circle cx="60" cy="55" r="15" fill="none" stroke="#ffa400" stroke-width="1.5" />
      <!-- Playback control -->
      <polygon points="50,50 50,60 65,55" fill="#ffa400" />
    </g>
  </symbol>

  <!-- CMM / Probe -->
  <symbol id="icon-cmm-probe" viewBox="0 0 120 120">
    <title>CMM Probe</title>
    <desc>Coordinate measuring machine probe</desc>
    <g stroke="#2a2a72" stroke-width="1.5" fill="none" stroke-linecap="round" stroke-linejoin="round">
      <!-- Probe head -->
      <circle cx="60" cy="30" r="6" />
      <!-- Arm -->
      <line x1="60" y1="36" x2="60" y2="65" />
      <!-- Probe tip (ball) -->
      <circle cx="60" cy="73" r="4" fill="#ffa400" />
      <!-- Measurement indicators -->
      <line x1="45" y1="50" x2="52" y2="50" stroke-width="1" />
      <line x1="68" y1="50" x2="75" y2="50" stroke-width="1" />
      <!-- Baseline -->
      <line x1="30" y1="85" x2="90" y2="85" />
    </g>
  </symbol>

  <!-- Conveyor / Production Line -->
  <symbol id="icon-conveyor" viewBox="0 0 120 120">
    <title>Conveyor System</title>
    <desc>Production line and conveyor belt</desc>
    <g stroke="#2a2a72" stroke-width="1.5" fill="none" stroke-linecap="round" stroke-linejoin="round">
      <!-- Belt -->
      <ellipse cx="35" cy="55" rx="6" ry="4" />
      <ellipse cx="85" cy="55" rx="6" ry="4" />
      <line x1="41" y1="55" x2="79" y2="55" />
      <line x1="41" y1="55" x2="79" y2="55" />
      <!-- Top surface -->
      <line x1="35" y1="51" x2="85" y2="51" />
      <!-- Rollers (dashes suggest rotation) -->
      <line x1="35" y1="48" x2="35" y2="62" stroke-dasharray="1,2" />
      <line x1="60" y1="48" x2="60" y2="62" stroke-dasharray="1,2" />
      <line x1="85" y1="48" x2="85" y2="62" stroke-dasharray="1,2" />
      <!-- Part on conveyor -->
      <rect x="55" y="48" width="10" height="6" fill="#eaf0ff" />
    </g>
  </symbol>

  <!-- Camera / Inspection -->
  <symbol id="icon-camera" viewBox="0 0 120 120">
    <title>Inspection Camera</title>
    <desc>Visual inspection and quality control</desc>
    <g stroke="#2a2a72" stroke-width="1.5" fill="none" stroke-linecap="round" stroke-linejoin="round">
      <!-- Camera body -->
      <rect x="35" y="30" width="50" height="40" rx="3" />
      <!-- Lens -->
      <circle cx="60" cy="50" r="12" />
      <!-- Focus indicator -->
      <circle cx="60" cy="50" r="8" fill="none" stroke="#ffa400" stroke-width="1" />
      <!-- Viewfinder -->
      <line x1="38" y1="35" x2="42" y2="35" />
      <!-- Status LED -->
      <circle cx="82" cy="35" r="2" fill="#10b981" />
    </g>
  </symbol>

  <!-- Pallet / Part Holder -->
  <symbol id="icon-pallet" viewBox="0 0 120 120">
    <title>Pallet / Fixture</title>
    <desc>Work holding fixture and pallet</desc>
    <g stroke="#2a2a72" stroke-width="1.5" fill="none" stroke-linecap="round" stroke-linejoin="round">
      <!-- Pallet base -->
      <rect x="20" y="70" width="80" height="15" rx="2" />
      <!-- Support beams -->
      <line x1="35" y1="55" x2="35" y2="70" />
      <line x1="60" y1="55" x2="60" y2="70" />
      <line x1="85" y1="55" x2="85" y2="70" />
      <!-- Workpiece -->
      <rect x="40" y="40" width="40" height="15" rx="2" fill="#eaf0ff" />
      <!-- Clamp indicator -->
      <line x1="35" y1="47" x2="32" y2="47" />
      <line x1="85" y1="47" x2="88" y2="47" />
    </g>
  </symbol>

  <!-- Fixture / Work-holding -->
  <symbol id="icon-fixture" viewBox="0 0 120 120">
    <title>Work Fixture</title>
    <desc>Precision work-holding device</desc>
    <g stroke="#2a2a72" stroke-width="1.5" fill="none" stroke-linecap="round" stroke-linejoin="round">
      <!-- Base plate -->
      <rect x="25" y="75" width="70" height="10" rx="2" />
      <!-- Fixture body (L-shaped) -->
      <path d="M 35 75 L 35 40 Q 35 35 40 35 L 55 35 Q 60 35 60 40 L 60 75" />
      <!-- Clamping surface -->
      <line x1="60" y1="50" x2="85" y2="50" stroke-width="2" />
      <!-- Screw holes -->
      <circle cx="40" cy="80" r="1.5" />
      <circle cx="75" cy="80" r="1.5" />
    </g>
  </symbol>

  <!-- Download / Export -->
  <symbol id="icon-export" viewBox="0 0 120 120">
    <title>Export</title>
    <desc>Export and sharing</desc>
    <g stroke="#2a2a72" stroke-width="1.5" fill="none" stroke-linecap="round" stroke-linejoin="round">
      <!-- Box with arrow -->
      <rect x="30" y="45" width="60" height="35" rx="3" />
      <!-- Arrow going right and down -->
      <path d="M 65 55 L 80 55 L 80 70" />
      <path d="M 80 55 L 75 60 L 80 65" fill="#ffa400" />
      <!-- File indicator -->
      <line x1="40" y1="60" x2="55" y2="60" stroke-width="1" />
      <line x1="40" y1="70" x2="50" y2="70" stroke-width="1" />
    </g>
  </symbol>

  <!-- Precision / Tolerance -->
  <symbol id="icon-precision" viewBox="0 0 120 120">
    <title>Precision / Tolerance</title>
    <desc>Tolerance and precision indicator</desc>
    <g stroke="#2a2a72" stroke-width="1.5" fill="none" stroke-linecap="round" stroke-linejoin="round">
      <!-- Target circle -->
      <circle cx="60" cy="60" r="35" />
      <circle cx="60" cy="60" r="22" />
      <circle cx="60" cy="60" r="10" fill="#ffa400" />
      <!-- Plus marks for precision -->
      <line x1="20" y1="60" x2="28" y2="60" stroke-width="1" />
      <line x1="24" y1="56" x2="24" y2="64" stroke-width="1" />
      <line x1="92" y1="60" x2="100" y2="60" stroke-width="1" />
      <line x1="96" y1="56" x2="96" y2="64" stroke-width="1" />
    </g>
  </symbol>

  <!-- Work Order / Document -->
  <symbol id="icon-work-order" viewBox="0 0 120 120">
    <title>Work Order</title>
    <desc>Manufacturing work order and documentation</desc>
    <g stroke="#2a2a72" stroke-width="1.5" fill="none" stroke-linecap="round" stroke-linejoin="round">
      <!-- Document -->
      <rect x="25" y="25" width="70" height="70" rx="3" />
      <!-- Lines (content) -->
      <line x1="35" y1="40" x2="75" y2="40" stroke-width="1" />
      <line x1="35" y1="50" x2="65" y2="50" stroke-width="1" />
      <line x1="35" y1="60" x2="70" y2="60" stroke-width="1" />
      <line x1="35" y1="70" x2="60" y2="70" stroke-width="1" />
      <!-- Checkmark (approval) -->
      <path d="M 78 82 L 85 88 L 95 78" stroke="#10b981" stroke-width="1.5" />
    </g>
  </symbol>

</svg>
